<?xml version="1.0" encoding="utf-8"?>
<!-- Generator: Adobe Illustrator 22.1.0, SVG Export Plug-In . SVG Version: 6.00 Build 0)  -->
<svg version="1.1" id="Capa_1" xmlns="http://www.w3.org/2000/svg" xmlns:xlink="http://www.w3.org/1999/xlink" x="0px" y="0px"
	 viewBox="0 0 496 496" style="enable-background:new 0 0 496 496;" xml:space="preserve">
<style type="text/css">
	.st0{fill:#F46969;}
	.st1{fill:#4C4949;}
</style>
<g>
	<path class="st0" d="M176,492c-2,0-4.1-0.8-5.7-2.3l-56-56c-2.3-2.3-3-5.7-1.7-8.7c1.2-3,4.2-4.9,7.4-4.9h24V244h64v176h24
		c3.2,0,6.2,1.9,7.4,4.9c1.2,3,0.6,6.4-1.7,8.7l-56,56C180.1,491.2,178,492,176,492z"/>
	<path class="st0" d="M320,492c-2,0-4.1-0.8-5.7-2.3l-56-56c-2.3-2.3-3-5.7-1.7-8.7c1.2-3,4.2-4.9,7.4-4.9h24V244h64v176h24
		c3.2,0,6.2,1.9,7.4,4.9c1.2,3,0.6,6.4-1.7,8.7l-56,56C324.1,491.2,322,492,320,492z"/>
</g>
<path class="st1" d="M456,4H40C17.9,4,0,21.9,0,44v144c0,22.1,17.9,40,40,40h416c22.1,0,40-17.9,40-40V44C496,21.9,478.1,4,456,4z
	 M480,188c0,13.2-10.8,24-24,24H40c-13.2,0-24-10.8-24-24V44c0-13.2,10.8-24,24-24h416c13.2,0,24,10.8,24,24V188z"/>
<path class="st1" d="M32,196h432V36H32V196z M48,156h16v-16H48v-16h176v16H80v16h144v24H48V156z M272,124h176v16H272V124z M256,180
	h-16V52h16V180z M224,108H48V92h176V108z M272,180v-24h176v24H272z M448,76h-16v16h16v16H272V92h144V76H272V52h176V76z M224,52v24
	H48V52H224z"/>
<polygon class="st1" points="485.7,305.7 474.3,294.3 452.7,316 440,316 440,303.3 461.7,281.7 450.3,270.3 440,280.7 440,260 
	424,260 424,280.7 413.7,270.3 402.3,281.7 424,303.3 424,316 411.3,316 389.7,294.3 378.3,305.7 388.7,316 368,316 368,332 
	388.7,332 378.3,342.3 389.7,353.7 411.3,332 424,332 424,344.7 402.3,366.3 413.7,377.7 424,367.3 424,388 440,388 440,367.3 
	450.3,377.7 461.7,366.3 440,344.7 440,332 452.7,332 474.3,353.7 485.7,342.3 475.3,332 496,332 496,316 475.3,316 "/>
<polygon class="st1" points="117.7,361.7 106.3,350.3 84.7,372 72,372 72,359.3 93.7,337.7 82.3,326.3 72,336.7 72,316 56,316 
	56,336.7 45.7,326.3 34.3,337.7 56,359.3 56,372 43.3,372 21.7,350.3 10.3,361.7 20.7,372 0,372 0,388 20.7,388 10.3,398.3 
	21.7,409.7 43.3,388 56,388 56,400.7 34.3,422.3 45.7,433.7 56,423.3 56,444 72,444 72,423.3 82.3,433.7 93.7,422.3 72,400.7 
	72,388 84.7,388 106.3,409.7 117.7,398.3 107.3,388 128,388 128,372 107.3,372 "/>
</svg>
