<?xml version="1.0" encoding="utf-8"?>
<!-- Generator: Adobe Illustrator 22.1.0, SVG Export Plug-In . SVG Version: 6.00 Build 0)  -->
<svg version="1.1" id="Capa_1" xmlns="http://www.w3.org/2000/svg" xmlns:xlink="http://www.w3.org/1999/xlink" x="0px" y="0px"
	 viewBox="0 0 496 496" style="enable-background:new 0 0 496 496;" xml:space="preserve">
<style type="text/css">
	.st0{fill:#F46969;}
	.st1{fill:#4C4949;}
</style>
<g>
	<path class="st0" d="M312,72c-61.9,0-112,50.1-112,112s50.1,112,112,112s112-50.1,112-112S373.9,72,312,72z M312,232
		c-26.5,0-48-21.5-48-48s21.5-48,48-48s48,21.5,48,48S338.5,232,312,232z"/>
	<rect x="168" y="408" class="st0" width="320" height="32"/>
	<rect x="88" y="104" class="st0" width="32" height="384"/>
</g>
<g>
	<path class="st1" d="M464,352h-77.1C451.1,323.3,496,258.8,496,184C496,82.5,413.5,0,312,0c-68.2,0-129.6,36.9-161.8,96.6
		c-2-0.4-4-0.6-6.2-0.6H64c-17.6,0-32,14.4-32,32v67.1l-18.7,9.4C5.1,208.5,0,216.7,0,225.9v140.2c0,9.2,5.1,17.4,13.3,21.5
		l18.7,9.4V464c0,17.6,14.4,32,32,32h80h320c17.6,0,32-14.4,32-32v-80C496,366.4,481.6,352,464,352z M376,368l-12.8,9.6l9.6,12.8
		l29.9-22.4H464c8.8,0,16,7.2,16,16v16h-21.3l-29.9-22.4l-9.6,12.8L432,400h-85.3l-29.9-22.4l-9.6,12.8L320,400h-93.3l-24.4-18.3
		c3.2-3.8,5.2-8.6,5.6-13.7H256l-12.8,9.6l9.6,12.8l29.9-22.4H376z M237.2,352H208v-16.2C217.2,342.1,227,347.5,237.2,352z
		 M192,366.1c0,3.1-1.7,5.8-4.4,7.2l-11.6,5.8V212.9l11.6,5.8c2.7,1.4,4.4,4.1,4.4,7.2V366.1z M176,396.9l12-6l12,9h-24V396.9z
		 M218.6,44.3L258.7,55l4.1-15.5L238.3,33c19.3-9.4,40.6-15.2,62.8-16.6l29.3,29.3l11.3-11.3l-17.7-17.7c22.3,1.6,43.4,7.5,62.5,17
		l10.6,39.8l15.5-4.1L406,44.8c18,12.2,33.6,27.9,45.7,46L441,130.7l15.5,4.1l6.5-24.2c9.3,19.1,15.1,40.2,16.5,62.6l-29.1,29.1
		l11.3,11.3l17.7-17.7c-1.6,22.3-7.5,43.4-17,62.5l-39.8,10.6l4.1,15.5l24.4-6.5c-12.2,18-27.9,33.6-46,45.7L365.3,313l-4.1,15.5
		l24.2,6.5c-19.1,9.3-40.2,15.1-62.6,16.5l-29.1-29.1l-11.3,11.3l17.8,17.8c-21.8-1.6-43.1-7.4-62.6-17L227,294.7l-15.5,4.1
		l6.5,24.4c-3.4-2.3-6.8-4.8-10-7.4v-89.9c0-9.2-5.1-17.4-13.3-21.5l-18.7-9.4V128c0-7.7-2.9-14.7-7.4-20.3l32.8-8.8l-4.1-15.5
		l-24.5,6.6C185.1,71.7,200.7,56.2,218.6,44.3z M20.4,373.3c-2.7-1.4-4.4-4.1-4.4-7.2V225.9c0-3.1,1.7-5.8,4.4-7.2l11.6-5.8v166.1
		L20.4,373.3z M48,464v-72l9.6,12.8l12.8-9.6L48,365.3v-90l10.3,10.3l11.3-11.3L48,252.7v-89.4l10.3,10.3l11.3-11.3L48,140.7V128
		c0-8.8,7.2-16,16-16h16v32h16v-32h16v368H96V160H80v36.7l-21.7,21.7l11.3,11.3L80,219.3v90l-22.4,29.9l12.8,9.6L80,336v85.3
		l-22.4,29.9l12.8,9.6L80,448v32H64C55.2,480,48,472.8,48,464z M128,480v-32l9.6,12.8l12.8-9.6L128,421.3V336l9.6,12.8l12.8-9.6
		L128,309.3V216l9.6,12.8l12.8-9.6L128,189.3V112h16c8.8,0,16,7.2,16,16v5.3l-22.4,29.9l12.8,9.6L160,160v85.3l-22.4,29.9l12.8,9.6
		L160,272v93.3l-22.4,29.9l12.8,9.6L160,392v72c0,8.8-7.2,16-16,16H128z M464,480h-61.3l-29.9-22.4l-9.6,12.8L376,480h-93.3
		l-29.9-22.4l-9.6,12.8L256,480h-84.4c2.8-4.7,4.4-10.1,4.4-16v-16h24l-12.8,9.6l9.6,12.8l29.9-22.4H256v-16h-80v-16h304v16H272v16
		h48l-12.8,9.6l9.6,12.8l29.9-22.4H432l-12.8,9.6l9.6,12.8l29.9-22.4H480v16C480,472.8,472.8,480,464,480z"/>
	<path class="st1" d="M312,240c30.9,0,56-25.1,56-56s-25.1-56-56-56s-56,25.1-56,56S281.1,240,312,240z M312,144
		c22.1,0,40,17.9,40,40s-17.9,40-40,40s-40-17.9-40-40S289.9,144,312,144z"/>
	<rect x="304" y="96" class="st1" width="16" height="16"/>
	<rect x="227.9" y="151.3" transform="matrix(0.3086 -0.9512 0.9512 0.3086 11.601 334.5335)" class="st1" width="16" height="16"/>
	<rect x="257" y="240.7" transform="matrix(0.5878 -0.809 0.809 0.5878 -92.0032 316.8806)" class="st1" width="16" height="16"/>
	<rect x="351" y="240.7" transform="matrix(0.8088 -0.5881 0.5881 0.8088 -77.5952 258.6811)" class="st1" width="16" height="16"/>
	<rect x="380" y="151.3" transform="matrix(0.9511 -0.309 0.309 0.9511 -30.2256 127.6901)" class="st1" width="16" height="16"/>
</g>
</svg>
