<?xml version="1.0" encoding="utf-8"?>
<!-- Generator: Adobe Illustrator 22.1.0, SVG Export Plug-In . SVG Version: 6.00 Build 0)  -->
<svg version="1.1" id="Capa_1" xmlns="http://www.w3.org/2000/svg" xmlns:xlink="http://www.w3.org/1999/xlink" x="0px" y="0px"
	 viewBox="0 0 496 496" style="enable-background:new 0 0 496 496;" xml:space="preserve">
<style type="text/css">
	.st0{fill:#F46969;}
	.st1{fill:#4C4949;}
</style>
<path class="st0" d="M407.6,423.5C407.6,423.5,407.5,423.5,407.6,423.5c-2.2,0-4.3-0.9-5.8-2.5L342,357.5c-1.4-1.5-2.2-3.4-2.2-5.5
	v-1.5c0-2,0.8-3.9,2.1-5.4c24.4-26.7,37.9-61.2,37.9-97.1s-13.5-70.4-37.9-97.1c-1.4-1.5-2.1-3.4-2.1-5.4V144c0-2,0.8-4,2.2-5.5
	L401.7,75c1.5-1.6,3.6-2.5,5.8-2.5c2,0.2,4.3,0.8,5.8,2.4c45.4,46.6,70.5,108.1,70.5,173.1s-25,126.5-70.5,173.1
	C411.8,422.7,409.7,423.5,407.6,423.5z"/>
<g>
	<rect x="331.2" y="382.4" transform="matrix(0.809 -0.5878 0.5878 0.809 -164.688 273.9655)" class="st1" width="16" height="16"/>
	<path class="st1" d="M203.8,248c0,17.6,14.4,32,32,32s32-14.4,32-32s-14.4-32-32-32S203.8,230.4,203.8,248z M251.8,248
		c0,8.8-7.2,16-16,16s-16-7.2-16-16s7.2-16,16-16S251.8,239.2,251.8,248z"/>
	<path class="st1" d="M171.8,248c0,35.3,28.7,64,64,64s64-28.7,64-64s-28.7-64-64-64S171.8,212.7,171.8,248z M283.8,248
		c0,26.5-21.5,48-48,48s-48-21.5-48-48s21.5-48,48-48S283.8,221.5,283.8,248z"/>
	<path class="st1" d="M235.8,16V0C141.1,0,53.3,55.2,12.2,140.5l14.4,6.9C65.1,67.6,147.2,16,235.8,16z"/>
	<path class="st1" d="M26.6,348.5l-14.4,6.9C53.3,440.8,141.1,496,235.8,496v-16C147.2,480,65.1,428.4,26.6,348.5z"/>
	<rect x="227.8" y="152" class="st1" width="16" height="16"/>
	
		<rect x="144.1" y="212.8" transform="matrix(0.309 -0.9511 0.9511 0.309 -104.9571 297.2305)" class="st1" width="16" height="16"/>
	
		<rect x="176.1" y="311.2" transform="matrix(0.5878 -0.809 0.809 0.5878 -182.3713 280.4734)" class="st1" width="16" height="16"/>
	<rect x="279.5" y="311.2" transform="matrix(0.809 -0.5878 0.5878 0.809 -132.7134 229.965)" class="st1" width="16" height="16"/>
	
		<rect x="311.5" y="212.8" transform="matrix(0.9511 -0.3089 0.3089 0.9511 -52.5827 109.4859)" class="st1" width="16" height="16"/>
	<rect x="227.8" y="64" class="st1" width="16" height="16"/>
	<rect x="259.8" y="88" class="st1" width="16" height="16"/>
	<rect x="60.4" y="185.6" transform="matrix(0.309 -0.9511 0.9511 0.309 -136.8665 198.8022)" class="st1" width="16" height="16"/>
	<rect x="93.1" y="162.6" transform="matrix(0.309 -0.9511 0.9511 0.309 -92.4019 214.0273)" class="st1" width="16" height="16"/>
	
		<rect x="124.3" y="382.4" transform="matrix(0.5878 -0.809 0.809 0.5878 -261.2579 267.9693)" class="st1" width="16" height="16"/>
	<rect x="112.5" y="344.2" transform="matrix(0.5878 -0.809 0.809 0.5878 -235.224 242.6808)" class="st1" width="16" height="16"/>
	<rect x="291.2" y="381.8" transform="matrix(0.809 -0.5878 0.5878 0.809 -171.9494 250.336)" class="st1" width="16" height="16"/>
	<path class="st1" d="M374,381.2c-36.5,37.9-85.6,58.8-138.2,58.8c-16.9,0-33.2-2.2-48.8-6.3c2.1-25.1-2-50.1-11.6-72.9
		c18,9.7,38.6,15.2,60.5,15.2c19.7,0,38.2-4.6,54.9-12.5l5.1-1.4c16.7-5.3,34-7.3,51.4-6.1l1.1-16c-8.1-0.6-16.2-0.4-24.2,0.3
		c24.4-23.3,39.6-56.1,39.6-92.4c0-5.7-0.5-11.2-1.2-16.7l0.3-5.1c0.1-19.1,4.1-37.6,11.8-55l-14.6-6.5c-4,8.9-6.9,18.2-9.1,27.5
		c-17.5-36-51.4-62.6-92-70.1l-4.6-1.8c-30-10-55.5-30.1-72.6-56.6c17.2-5,35.3-7.8,54-7.8c50,0,97.3,19.1,133.2,53.7l11.1-11.5
		C341.2,60.7,289.9,40,235.8,40c-114.7,0-208,93.3-208,208s93.3,208,208,208c57,0,110.2-22.6,149.8-63.7L374,381.2z M347.8,248
		c0,61.8-50.2,112-112,112s-112-50.2-112-112s50.2-112,112-112S347.8,186.2,347.8,248z M166.2,69.1c13.1,21.6,31.1,39.4,52.4,52.2
		c-41.3,5.6-76.4,30.8-95.4,66l-3,3.6c-18.8,25.5-45.7,43.5-76.2,51.5C46.2,163.5,96.3,96.4,166.2,69.1z M171.2,428.8
		c-70.9-25.4-122.7-91.4-127.1-169.9c24.6-5.8,47.1-17.4,65.8-33.6c-1.3,7.4-2.1,15-2.1,22.7c0,34,13.4,64.8,35.1,87.8l3,4.6
		C164.2,366.1,173,397.3,171.2,428.8z"/>
	<rect x="443.8" y="240" class="st1" width="16" height="16"/>
	<path class="st1" d="M430.4,397.9l-51.5-47.2l3.8-5.7c17.6-26.6,27.6-57.5,29-89.3l16,0.7c-1.4,32.5-11,64-28,91.7l41.5,38
		L430.4,397.9z"/>
	<path class="st1" d="M411.6,240.3c-1.4-31.9-11.4-62.8-29-89.3l-3.8-5.7l51.5-47.2l10.8,11.8l-41.5,38c16.9,27.7,26.6,59.2,28,91.7
		L411.6,240.3z"/>
</g>
</svg>
