<?xml version="1.0" encoding="utf-8"?>
<!-- Generator: Adobe Illustrator 19.1.0, SVG Export Plug-In . SVG Version: 6.00 Build 0)  -->
<svg version="1.1" id="Layer_1" xmlns="http://www.w3.org/2000/svg" xmlns:xlink="http://www.w3.org/1999/xlink" x="0px" y="0px"
	 viewBox="0 0 160 81" enable-background="new 0 0 160 81" xml:space="preserve">
<g>
	<path fill-rule="evenodd" clip-rule="evenodd" fill="#3C90CE" d="M23.5,25.1V4c0-0.6,0.5-1.1,1.1-1.1h5.5c0.6,0,1.1,0.5,1.1,1.1v32
		c0,9-6.1,14.4-14,14.4C9.3,50.4,3,44.9,3,36.1c0-7.3,4.1-13.6,12.4-14C17.3,22.1,20.9,22.5,23.5,25.1L23.5,25.1z M23.5,36.2
		L23.5,36.2c0-5.1-3.7-6.7-6.5-6.7c-2.8,0-6.3,2-6.3,6.8c0,4.8,3.6,6.8,6.5,6.8C20,43.1,23.5,41.4,23.5,36.2z"/>
	<path fill-rule="evenodd" clip-rule="evenodd" fill="#3EB549" d="M56,28.5c-0.2,0.7-0.7,1-1.3,0.9c-1.1-0.2-2.2-0.3-3.2-0.3
		c-2.9,0-5.6,1.6-5.6,5.6v13.8c0,0.6-0.5,1.1-1.1,1.1h-5.5c-0.6,0-1.1-0.5-1.1-1.1V33.7c0-9.1,6.5-11.7,12.7-11.5
		c1.5,0.1,3.3,0.2,5.1,0.7c0.7,0.2,1.1,0.7,0.9,1.4L56,28.5z"/>
	<path fill-rule="evenodd" clip-rule="evenodd" fill="#E43926" d="M157,34.1v14.4c0,0.6-0.5,1.1-1.1,1.1h-5.5
		c-0.6,0-1.1-0.5-1.1-1.1V34.3c0-1.9-0.5-4.9-4.5-4.9c-3.7,0-4.5,2.5-4.5,4.4v14.6c0,0.6-0.5,1.1-1.1,1.1h-5.5
		c-0.6,0-1.1-0.5-1.1-1.1V33.9c0-1.9-0.9-4.4-4.5-4.4c-4,0-4.5,3-4.5,4.9v14.2c0,0.6-0.5,1.1-1.1,1.1H117c-0.6,0-1.1-0.5-1.1-1.1
		V34.1c0-8.6,5.4-12,12.2-12c3.2,0,6.5,1.5,8.3,4.4c1.8-2.9,5.1-4.4,8.3-4.4C151.5,22.1,157,25.5,157,34.1z"/>
	<path fill-rule="evenodd" clip-rule="evenodd" fill="#EAC11D" d="M95.3,22.9c-4.1,0-7.8,1.8-10.4,4.6c-2.6-2.8-6.3-4.6-10.4-4.6
		c-7.8,0-14.1,6.3-14.1,14.1c0,7.8,6.3,14.1,14.1,14.1c4.1,0,7.8-1.8,10.4-4.6c2.6,2.8,6.3,4.6,10.4,4.6c7.8,0,14.1-6.3,14.1-14.1
		C109.4,29.2,103.1,22.9,95.3,22.9L95.3,22.9z M74.5,43.7L74.5,43.7c-3.7,0-6.6-3-6.6-6.6c0-3.7,3-6.6,6.6-6.6c3.7,0,6.6,3,6.6,6.6
		C81.1,40.7,78.2,43.7,74.5,43.7L74.5,43.7z M95.3,43.7L95.3,43.7c-3.7,0-6.6-3-6.6-6.6c0-3.7,3-6.6,6.6-6.6c3.7,0,6.6,3,6.6,6.6
		C101.9,40.7,98.9,43.7,95.3,43.7z"/>
	<path fill-rule="evenodd" clip-rule="evenodd" fill="#3C90CE" d="M24,57.2c0.6,0,0.9,0.2,1.1,0.7c0,0.1,0.1,0.2,0.1,0.2l3.8,0
		c1.1,0.1,1.8,0.4,2.3,0.8c0.3,0.2,0.4,0.4,0.4,0.5l0,0c-0.3,1.1-1,2.1-2.2,3.1c-0.7,0.5-1.5,1.1-2.3,1.8l0,0l0.1,0.1l0,0
		c1.7-0.1,2.9-0.2,3.5-0.3c2-0.1,3.1,0.1,3.3,0.4c0.2,0.2,0.3,0.4,0.4,0.7l0,0.2c0.1,0.9-0.6,2-1.9,3.1c-1.4,1.2-2.6,2-3.7,2.5
		c-1.1,0.5-1.7,0.8-1.9,0.8l0,0c0.1,0.1,0.1,0.3,0.1,0.4c0,0.3-0.1,0.6-0.5,0.9l-0.8,0.1c-0.3,0-0.5-0.2-0.7-0.5L25,72.6l-1.2,0.3
		l-0.2,0c-0.3,0-0.6-0.2-0.9-0.8c0-0.1-0.1-0.2-0.1-0.4c0-0.4,0.2-0.6,0.8-0.8c0.5-0.1,0.8-0.2,0.8-0.3l-0.6-3.8l-0.9-0.4l-0.3-0.9
		l0-0.1c0-0.1,0.2-0.4,0.8-0.9c-0.1-1.7-0.3-3.1-0.4-4.2l-0.6,0.1c-0.9,0.1-1.4-0.1-1.4-0.5c-0.1-0.2-0.2-0.4-0.2-0.5l0-0.2
		c0-0.3,0.6-0.6,1.9-0.7l0.1,0l0,0c0-0.6,0.3-1,1-1.3L24,57.2L24,57.2z M25.1,60.4L25.1,60.4c0.1,0.7,0.2,1.6,0.3,2.8
		c0.4-0.2,1-0.7,1.9-1.4c0.6-0.5,1.1-0.9,1.5-1.4l0.1-0.3l0-0.1c-0.7-0.1-1.5-0.2-2.3-0.1c-0.4,0-1,0.1-1.6,0.2L25.1,60.4L25.1,60.4
		z M25.9,66.8L25.9,66.8l0.5,3.1c1.9-0.9,3.4-1.8,4.4-2.6c0.4-0.4,0.8-0.8,1-1.1c-0.6,0-1.2,0-1.7,0l-0.1,0
		c-1.1,0.1-2.4,0.2-4.1,0.4L25.9,66.8z"/>
	<path fill-rule="evenodd" clip-rule="evenodd" fill="#448CCB" d="M36.3,59.9c0.5,0,0.8,0.1,1,0.3l0.1,0.4c0,0.4-0.4,0.7-1.2,0.9
		l-0.2,0c-0.6,0-0.9-0.2-0.9-0.5l0-0.1l0-0.2c0.1-0.5,0.5-0.8,1.1-0.8L36.3,59.9L36.3,59.9z M37.1,63.3L37.1,63.3
		c0.3,1.3,0.6,2.7,0.7,4.2l0.1,0.9l0.2,3.3c-0.2,0.1-0.4,0.2-0.7,0.3L37,72.2l0,0c-0.2,0-0.3-0.1-0.5-0.4c0,0.1,0,0.2,0,0.2
		c-0.3-0.3-0.5-0.8-0.6-1.7l0-3.8c-0.1-0.5-0.1-1.2-0.2-2.3c-0.1-0.9,0.2-1.3,0.8-1.3C36.8,63,37.1,63.1,37.1,63.3z"/>
	<path fill-rule="evenodd" clip-rule="evenodd" fill="#448CCB" d="M44.2,62.4c0.3,0.6,0.6,1.4,0.9,2.3c0.6,2.8,1.1,4.7,1.4,5.5
		c0.1,0,0.1,0.2,0.2,0.6l0,0.1c0,0.3-0.2,0.5-0.6,0.6l-0.1,0c-0.6,0-1-0.1-1-0.3c-0.3-0.6-0.6-1.3-0.9-2.2l-1-4l0,0
		c-0.7,0.9-1.4,2.7-2.2,5.2c-0.3,0.8-0.5,1.3-0.6,1.3c0-0.1-0.1-0.1-0.3-0.1l-0.4,0c-0.2,0-0.3-0.1-0.3-0.3l-0.4-0.6
		c0.2-1,0.2-2.8,0-5.4c0.4-0.3,0.6-0.5,0.6-0.5c0-0.1,0-0.1,0.1-0.1c0.8,0,1.1,0.1,1.1,0.2L40.7,65l0,0l0,0c0.4-0.4,0.7-0.9,1-1.6
		c0.5-0.8,0.9-1.3,1.4-1.3C43.9,62.3,44.2,62.3,44.2,62.4z"/>
	<path fill-rule="evenodd" clip-rule="evenodd" fill="#448CCB" d="M52.9,57.5c0,0.2,0.2,0.3,0.4,0.4c0.2,0.1,0.4,0.9,0.5,2.4l0.2,3
		c0.1,1.5,0.7,3.1,1.9,5c0.4,0.4,0.7,0.8,0.7,1l0,0.2c0,0.1-0.1,0.4-0.5,1l-0.5,0c-0.7,0-1.2-0.4-1.6-1.3c-0.2-0.4-0.4-0.7-0.8-1
		c-0.2,0.7-0.7,1.4-1.6,2c-1,0.6-2.1,0.9-3.4,1c-0.5-0.3-0.8-0.5-0.8-0.5c-0.1-0.5-0.2-0.9-0.2-1.1l0-0.2c0-0.6,0.5-1.6,1.7-2.9
		c1.1-1.1,2-1.7,2.7-1.8c0.2-0.1,0.4-0.3,0.3-0.5c-0.4-2.4-0.6-4-0.7-4.7l-0.1-0.9l1-0.8c0.1-0.1,0.2-0.1,0.3-0.1L52.9,57.5
		L52.9,57.5z M50,69.2L50,69.2c0.9-0.1,1.6-0.8,2-2.3c0.1-0.2,0.1-0.4,0.1-0.5c-0.9,0.4-1.6,1-2,1.7c-0.3,0.6-0.4,0.9-0.4,1L50,69.2
		z"/>
	<path fill-rule="evenodd" clip-rule="evenodd" fill="#448CCB" d="M63,61.3c0.4,0,0.7,0.3,0.9,0.9c0,0.3,0.3,1.5,0.9,3.4
		c0.4,1,0.9,1.9,1.5,2.6c0.4,0.5,0.6,0.9,0.6,1.1l0,0.2c0,0.2-0.1,0.4-0.4,0.4c-0.3,0.2-0.5,0.3-0.6,0.3c-0.6-0.2-1.1-0.6-1.6-1.2
		c-0.3-0.4-0.7-1.3-1.4-2.8l-0.2-0.2c-0.7,1.2-1.2,2.1-1.7,2.8c-0.6,0.7-1.4,1.1-2.2,1.2c-0.8,0.1-1.4-0.3-1.7-1.2l-0.1-0.5
		c-0.1-1.1,0.6-2.6,1.9-4.4c0.9-0.8,1.9-1.5,3.1-2.1c0.3-0.3,0.6-0.4,1-0.5L63,61.3L63,61.3z M59.1,67.9L59.1,67.9L59.1,67.9
		c0.5,0,1-0.5,1.4-1.4c0.8-1.2,1.2-2.1,1.2-2.7l0,0l-0.1,0c-0.4,0.1-1,0.7-1.8,1.8C59.2,66.3,59,67.1,59.1,67.9L59.1,67.9z"/>
	<path fill-rule="evenodd" clip-rule="evenodd" fill="#448CCB" d="M72.1,60.7c0.4,0,0.7,0.3,0.9,0.9c0,0.3,0.3,1.5,0.9,3.4
		c0.4,1,0.9,1.9,1.5,2.6c0.4,0.5,0.6,0.9,0.6,1.1l0,0.2c0,0.2-0.1,0.4-0.4,0.4c-0.3,0.2-0.5,0.3-0.6,0.3c-0.6-0.2-1.1-0.6-1.6-1.2
		c-0.3-0.4-0.7-1.3-1.4-2.8l-0.2-0.2c-0.7,1.2-1.2,2.1-1.7,2.8c-0.6,0.7-1.4,1.1-2.2,1.2c-0.8,0.1-1.4-0.3-1.7-1.2L66,67.7
		c-0.1-1.1,0.6-2.6,1.9-4.4c0.9-0.8,1.9-1.5,3.1-2.1c0.3-0.3,0.6-0.4,1-0.5L72.1,60.7L72.1,60.7z M68.2,67.3L68.2,67.3L68.2,67.3
		c0.5,0,1-0.5,1.4-1.4c0.8-1.2,1.2-2.1,1.2-2.7l0,0l-0.1,0c-0.4,0.1-1,0.7-1.8,1.8C68.3,65.7,68.1,66.4,68.2,67.3L68.2,67.3z"/>
	<path fill-rule="evenodd" clip-rule="evenodd" fill="#448CCB" d="M79,61c0.7-0.1,1.2,0.1,1.3,0.5c0.2,0.3,0.2,0.5,0.3,0.7
		c-0.1,0.2-0.4,0.4-0.9,0.6c-1.4,0.3-2.2,0.6-2.2,0.7c0.2,0.3,0.8,0.6,1.7,0.8c1.5,0.2,2.7,0.5,3.4,0.8c0.7,0.3,1,0.8,1.1,1.5
		c0.1,1-0.8,1.8-2.6,2.3c-0.5,0.1-1,0.2-1.5,0.3c-1.9,0-2.8-0.1-2.9-0.5c-0.2-0.2-0.3-0.4-0.3-0.7l0-0.2c0-0.4,0.2-0.8,0.5-1.1
		c1.1,0.4,2,0.6,2.7,0.6c0.6,0,1-0.2,1.4-0.6l0,0c-0.6-0.3-1.6-0.5-3.2-0.8c-1.6-0.3-2.4-0.8-2.4-1.5l0-0.1c-0.1-1,0.5-1.9,1.8-2.5
		c0.6-0.3,1.2-0.5,1.7-0.6L79,61z"/>
	<path fill-rule="evenodd" clip-rule="evenodd" fill="#448CCB" d="M93.5,60.2c1-0.1,1.7,0.1,2.3,0.6c0.1,0,0.2,0.1,0.2,0.2
		c-0.2,0.1-0.3,0.2-0.3,0.3c0.3,2.7,0.5,4.7,0.6,6c0.2,2.5,0.1,4.2-0.3,4.9c-0.5,1.3-1.3,2-2.4,2c-1,0.1-1.9-0.3-2.7-1l-0.1-0.1
		l0-0.1c0-0.3-0.3-0.8-0.9-1.4c-0.2-0.4-0.4-0.7-0.4-1c0-0.3,0-0.5,0.2-0.6l0.1,0c0.1,0,0.3,0.1,0.5,0.3c0.2,0,0.4,0,0.4,0.1
		c0.2,0.6,0.8,1.1,1.7,1.6c0,0,0.3,0.2,0.8,0.5c0.4-0.1,0.7-0.4,1-0.9c0.3-0.7,0.4-1.7,0.3-2.9L94.3,65l0-0.6
		c-0.2,0.2-0.6,0.9-1.3,2.1c-0.5,0.7-1.1,1.1-1.6,1.1l-0.2,0c-0.4,0-0.8-0.2-1.3-0.6c-0.4-0.2-0.5-0.4-0.6-0.8
		c-0.2-0.3-0.2-0.7-0.3-1.2l0-0.2c-0.1-1.7,0.7-3.1,2.3-4.1c0.6-0.3,1.3-0.5,1.9-0.6L93.5,60.2L93.5,60.2z M91,65.1L91,65.1l0.1,0.6
		c0.5-0.3,1-0.9,1.3-1.7c0.4-0.8,0.7-1.5,1-2c0-0.1-0.1-0.1-0.1-0.1c-0.5,0-1,0.3-1.6,0.9c-0.5,0.6-0.8,1.3-0.7,2L91,65.1z"/>
	<path fill-rule="evenodd" clip-rule="evenodd" fill="#448CCB" d="M98,55c0.4,0.1,0.6,0.3,0.6,0.3c-0.2,2.3-0.2,4.7,0,7.2l0.1,1
		c0.3-0.3,0.7-1.3,1.2-3.1c0.2-0.6,0.5-0.9,0.7-0.9c0.4-0.2,0.6-0.4,0.7-0.4l0.2,0c0.2,0,0.4,0.2,0.6,0.7c0.3,0.6,0.7,1.9,1.1,3.7
		c0.3,0.9,0.6,1.6,0.9,2c0.2,0.3,0.5,0.6,0.9,0.9l0,0c-0.2,0.4-0.5,0.7-0.8,0.8c-0.4,0-0.9-0.2-1.6-0.7c-0.4-0.4-0.7-0.9-0.9-1.6
		l-0.6-2.3c-0.3,0.4-0.7,1.5-1.2,3.2c-0.3,0.8-0.7,1.4-1,1.8l-0.2,0c-0.2,0-0.5-0.1-0.8-0.5l-0.3-0.1l0-0.3c0-0.3-0.1-0.7-0.4-1.2
		c0.1,0-0.1-2.2-0.3-6.7c0-1.7,0.1-2.8,0.2-3.4c0.3,0,0.4-0.2,0.5-0.4l0,0c0.2,0.1,0.3,0.1,0.5,0.1C98,55.2,98,55.1,98,55L98,55z"/>
	<path fill-rule="evenodd" clip-rule="evenodd" fill="#448CCB" d="M108.7,59.8c1-0.1,1.8,0.5,2.3,1.7c0.1,0.3,0.2,0.7,0.3,1.1l0,0.3
		c0.1,1.4-0.4,2.6-1.4,3.6c-0.6,0.4-1.1,0.6-1.6,0.7l-0.1,0c-1.1,0.1-1.9-0.6-2.4-1.9c-0.1-0.3-0.2-0.7-0.2-1.1l0-0.2
		c-0.1-0.9,0-1.8,0.2-2.6c0-0.1,0.3-0.2,0.7-0.4c0.1-0.1,0.3-0.3,0.5-0.7C107.3,60,107.9,59.9,108.7,59.8L108.7,59.8L108.7,59.8z
		 M107.5,62.6L107.5,62.6l0.1,1.5c0.1,0.8,0.3,1.2,0.6,1.2c0.4-0.2,0.7-0.6,1-1.1c0.2-0.4,0.3-0.8,0.2-1.2l0-0.1
		c0-0.6-0.3-1.1-0.8-1.5c-0.3,0-0.6,0.3-0.9,0.7c-0.1,0.2-0.2,0.3-0.3,0.3L107.5,62.6z"/>
	<path fill-rule="evenodd" clip-rule="evenodd" fill="#448CCB" d="M115.3,59.3c1-0.1,1.8,0.5,2.3,1.7c0.1,0.3,0.2,0.7,0.3,1.1l0,0.3
		c0.1,1.4-0.4,2.6-1.4,3.6c-0.6,0.4-1.1,0.6-1.6,0.7l-0.1,0c-1.1,0.1-1.9-0.6-2.4-1.9c-0.1-0.3-0.2-0.7-0.2-1.1l0-0.2
		c-0.1-0.9,0-1.8,0.2-2.6c0-0.1,0.3-0.2,0.7-0.4c0.1-0.1,0.3-0.3,0.5-0.7C113.9,59.5,114.5,59.4,115.3,59.3L115.3,59.3L115.3,59.3z
		 M114,62.2L114,62.2l0.1,1.5c0.1,0.8,0.3,1.2,0.6,1.2c0.4-0.2,0.7-0.6,1-1.1c0.2-0.4,0.3-0.8,0.2-1.2l0-0.1c0-0.6-0.3-1.1-0.8-1.5
		c-0.3,0-0.6,0.3-0.9,0.7c-0.1,0.2-0.2,0.3-0.3,0.3L114,62.2z"/>
	<path fill-rule="evenodd" clip-rule="evenodd" fill="#448CCB" d="M125.4,58.2c0.7,0.1,1.1,0.2,1.1,0.3c0.4,0.5,0.8,1.5,1.4,2.9
		c0.4,1.1,0.9,2.2,1.4,3.2c0,0.1-0.1,0.2-0.3,0.5c0,0.1,0,0.2-0.1,0.2c-1,0.1-1.7-0.4-2.1-1.5c-0.4-1.2-0.8-1.9-1-2.3l0,0
		c-0.7,2.7-1.3,4.1-1.8,4.2l-0.3,0c-0.8,0.1-1.3-0.7-1.5-2.3c-0.2-1.2-0.4-1.9-0.4-1.9c-0.2,0.3-0.5,1.1-0.7,2.3
		c-0.3,1.4-0.7,2.1-1.2,2.1c-0.2,0-0.5-0.1-0.8-0.3l0-0.2l0-0.1l-0.2-0.2c0.1-0.4,0.1-0.8,0.1-1.2l-0.2-2l0-0.5
		c0.2,0,0.3-0.2,0.3-0.6l0-0.2c0-0.1,0.2-0.2,0.5-0.3c0-0.1,0.1-0.2,0.1-0.2l0.4,0.1c0.1,0,0.4-0.4,1-1.2c0.2-0.2,0.4-0.3,0.4-0.3
		c1-0.1,1.7,0.5,2.2,1.8l0.1,0.3l0.1,0c0.1-0.3,0.3-0.9,0.5-1.7c0.1-0.3,0.3-0.5,0.4-0.6l0.3,0l0.2-0.3L125.4,58.2z"/>
	<path fill-rule="evenodd" clip-rule="evenodd" fill="#448CCB" d="M133.1,65.9c-3.1,0-5.6-0.9-6.8-3.4c-0.2-0.5,0-1.1,0.5-1.3
		c0.5-0.2,1.1,0,1.3,0.5c2.3,5.1,14.8,0.5,22.2-2.2c2.3-0.8,4.2-1.5,5.5-1.8c0.5-0.1,1,0.2,1.2,0.7c0.1,0.5-0.2,1-0.7,1.2
		c-1.2,0.3-3.1,1-5.2,1.8C145.6,63.3,138.5,65.9,133.1,65.9z"/>
	<path fill-rule="evenodd" clip-rule="evenodd" fill="#448CCB" d="M7.6,78.1c-0.5,0-1,0-1.5,0c-0.7,0-1.4,0-2.1,0
		c-0.5,0-0.8-0.3-1-0.7c-0.1-0.4,0.1-0.9,0.5-1.1c4.4-2.5,10.8-3.8,16.4-4.9c2.2-0.5,4.4-0.9,6.3-1.4c0.5-0.1,1,0.2,1.2,0.7
		c0.1,0.5-0.2,1-0.7,1.2c-1.9,0.5-4.1,0.9-6.4,1.4c-3.9,0.8-8.1,1.6-11.7,2.9c0.3,0,0.5,0,0.8-0.1c0.5,0,1,0.3,1,0.9
		c0,0.5-0.3,1-0.9,1C8.9,78.1,8.2,78.1,7.6,78.1z"/>
</g>
</svg>
