<!-- Generated by IcoMoon.io -->
<svg version="1.1" xmlns="http://www.w3.org/2000/svg" width="1024" height="1024" viewBox="0 0 1024 1024">
<title></title>
<g id="icomoon-ignore">
</g>
<path fill="#58b8e2" d="M211.319 1024h-177.186c-18.859 0-34.133-15.275-34.133-34.133v-955.733c0-18.859 15.275-34.133 34.133-34.133h631.467c18.859 0 34.133 15.275 34.133 34.133v383.386c0 7.714-2.611 15.189-7.39 21.214l-454.281 572.348c-6.306 7.901-15.936 12.919-26.737 12.919-0.002 0-0.004 0-0.006 0v0z"></path>
<path fill="#fdc567" d="M631.467 921.6h-563.2c-9.421 0-17.067-7.646-17.067-17.067v-819.2c0-9.421 7.646-17.067 17.067-17.067h563.2c9.421 0 17.067 7.646 17.067 17.067v819.2c0 9.421-7.646 17.067-17.067 17.067z"></path>
<path fill="#fd5b60" d="M529.067 153.6h-341.333c-18.859 0-34.133-15.275-34.133-34.133v-119.467h409.6v119.467c0 18.859-15.275 34.133-34.133 34.133z"></path>
<path fill="#fd3238" d="M785.067 102.4v163.226l119.467 75.708 119.467-75.708v-163.226l-119.467-34.133z"></path>
<path fill="#fedca4" d="M170.667 324.267c-0.006 0-0.013 0-0.020 0-4.706 0-8.966-1.911-12.045-5v0l-34.133-34.133 24.132-24.132 20.224 20.224 39.39-52.531 27.307 20.463-51.2 68.267c-2.906 3.849-7.342 6.41-12.387 6.772l-0.055 0.003c-0.347 0.044-0.748 0.068-1.156 0.068-0.020 0-0.039 0-0.059 0h0.003zM170.667 443.733c-0.006 0-0.013 0-0.020 0-4.706 0-8.966-1.911-12.045-5v0l-34.133-34.133 24.132-24.132 20.224 20.224 39.39-52.531 27.307 20.463-51.2 68.267c-2.906 3.849-7.342 6.41-12.387 6.772l-0.055 0.003c-0.347 0.044-0.748 0.068-1.156 0.068-0.020 0-0.039 0-0.059 0h0.003zM170.667 563.2c-0.006 0-0.013 0-0.020 0-4.706 0-8.966-1.911-12.045-5v0l-34.133-34.133 24.132-24.132 20.224 20.224 39.39-52.531 27.307 20.463-51.2 68.267c-2.906 3.849-7.342 6.41-12.387 6.772l-0.055 0.003c-0.347 0.044-0.748 0.068-1.156 0.068-0.020 0-0.039 0-0.059 0h0.003zM273.067 256h273.067v34.133h-273.067zM273.067 375.467h68.267v34.133h-68.267z"></path>
<path fill="#be4448" d="M221.867 51.2h34.133v34.133h-34.133zM460.8 51.2h34.133v34.133h-34.133zM341.333 51.2h34.133v34.133h-34.133z"></path>
<path fill="#be262a" d="M887.467 136.533h34.133v68.267h-34.133zM887.467 238.933h34.133v34.133h-34.133z"></path>
<path fill="#bd252a" d="M989.867 853.333h-819.2c-18.859 0-34.133 15.275-34.133 34.133v17.067c0 18.859 15.275 34.133 34.133 34.133h819.2c18.859 0 34.133-15.275 34.133-34.133v-17.067c0-18.859-15.275-34.133-34.133-34.133z"></path>
<path fill="#8e1c20" opacity="0.5" d="M187.733 904.533v-17.067c0-18.859 15.275-34.133 34.133-34.133h-51.2c-18.859 0-34.133 15.275-34.133 34.133v17.067c0 18.859 15.275 34.133 34.133 34.133h51.2c-18.859 0-34.133-15.275-34.133-34.133z"></path>
<path fill="#fd3238" d="M939.059 644.779l-51.593-30.379-46.217-134.775c-14.336-41.813-54.579-70.025-99.908-70.025h-322.15c-45.329 0-85.589 28.211-99.925 70.025l-46.199 134.775-56.218 29.013c-27.642 14.503-46.177 43-46.182 75.826v134.094h819.2v-130.509c0 0 0 0 0-0.001 0-34.633-20.629-64.448-50.27-77.828l-0.538-0.217z"></path>
<path fill="#fd3238" d="M870.4 580.267h85.333v34.133h-85.333zM204.8 580.267h85.333v34.133h-85.333z"></path>
<path fill="#c6d1d6" d="M273.067 614.4l140.442 34.133h333.534l140.425-34.133-46.217-134.775c-14.336-41.813-54.579-70.025-99.908-70.025h-322.15c-45.329 0-85.589 28.211-99.925 70.025l-46.199 134.775z"></path>
<path fill="#a0b2ba" opacity="0.5" d="M370.483 479.625c14.336-41.813 54.579-70.025 99.925-70.025h-51.2c-45.329 0-85.589 28.211-99.925 70.025l-46.217 134.775 140.442 34.133h51.2l-140.442-34.133 46.217-134.775z"></path>
<path fill="#be262a" opacity="0.5" d="M268.049 643.43l39.475-20.378-34.458-8.653-56.218 29.030c-27.644 14.492-46.181 42.986-46.182 75.81v0 134.093h51.2v-134.093c0.002-32.824 18.538-61.318 45.714-75.586l0.468-0.224z"></path>
<path fill="#5f1315" d="M307.2 1024h-68.267c-18.859 0-34.133-15.275-34.133-34.133v-51.2h136.533v51.2c0 18.859-15.275 34.133-34.133 34.133z"></path>
<path fill="#50595d" d="M307.2 1024h-68.267c-18.859 0-34.133-15.275-34.133-34.133v-51.2h136.533v51.2c0 18.859-15.275 34.133-34.133 34.133z"></path>
<path fill="#414547" opacity="0.5" d="M238.933 989.867v-51.2h-34.133v51.2c0 18.859 15.275 34.133 34.133 34.133h34.133c-18.859 0-34.133-15.275-34.133-34.133z"></path>
<path fill="#50595d" d="M921.6 1024h-68.267c-18.859 0-34.133-15.275-34.133-34.133v-51.2h136.533v51.2c0 18.859-15.275 34.133-34.133 34.133z"></path>
<path fill="#fdd38d" d="M870.4 785.067h-153.6v-34.133c0-18.859 15.275-34.133 34.133-34.133h170.667v17.067c0 28.279-22.921 51.2-51.2 51.2zM290.133 785.067h153.6v-34.133c0-18.859-15.275-34.133-34.133-34.133h-170.667v17.067c0 28.279 22.921 51.2 51.2 51.2z"></path>
<path fill="#fcb641" d="M358.4 896c0 23.564-19.103 42.667-42.667 42.667s-42.667-19.103-42.667-42.667c0-23.564 19.103-42.667 42.667-42.667s42.667 19.103 42.667 42.667z"></path>
<path fill="#fcb641" d="M870.4 896c0 23.564-19.103 42.667-42.667 42.667s-42.667-19.103-42.667-42.667c0-23.564 19.103-42.667 42.667-42.667s42.667 19.103 42.667 42.667z"></path>
<path fill="#fdc567" d="M460.8 853.333h238.933v119.467h-238.933z"></path>
<path fill="#be262a" d="M494.933 699.733h170.667v34.133h-170.667zM494.933 768h170.667v34.133h-170.667z"></path>
<path fill="#a0b2ba" d="M529.067 460.8h102.4v34.133h-102.4z"></path>
<path fill="#fcb641" d="M487.305 582.076c-5.729-11.279-17.244-18.873-30.532-18.876h-60.195c-0.004 0-0.010 0-0.015 0-13.286 0-24.797 7.596-30.428 18.682l-0.089 0.194-24.713 49.459 68.267 16.998h102.4l-24.695-66.458zM794.505 582.076c-5.732-11.281-17.251-18.876-30.544-18.876-0.002 0-0.004 0-0.006 0h-60.194c-12.937 0-24.747 7.305-30.532 18.876l-24.695 66.458h102.4l68.267-16.998-24.695-49.459z"></path>
</svg>
