<?xml version="1.0" encoding="utf-8"?>
<!-- Generator: Adobe Illustrator 22.1.0, SVG Export Plug-In . SVG Version: 6.00 Build 0)  -->
<svg version="1.1" id="Capa_1" xmlns="http://www.w3.org/2000/svg" xmlns:xlink="http://www.w3.org/1999/xlink" x="0px" y="0px"
	 viewBox="0 0 496 496" style="enable-background:new 0 0 496 496;" xml:space="preserve">
<style type="text/css">
	.st0{fill:#F46969;}
	.st1{fill:#4C4949;}
</style>
<g>
	<path class="st0" d="M336,228h-64c-4.4,0-8,3.6-8,8v48h16h48h16v-48C344,231.6,340.4,228,336,228z"/>
	<path class="st0" d="M136,180v32h16c13.3,0,24,10.7,24,24v80c0,13.3-10.7,24-24,24h-16v40H96c-8.8,0-16-7.2-16-16V196
		c0-8.8,7.2-16,16-16H136z"/>
</g>
<g>
	<path class="st1" d="M488.1,220l-1.4-8h-56.2l1.8,10.6c3.7,22.5,6.1,45.8,7.1,69.4H408v-80c0-13.2-10.8-24-24-24h-16
		c-4.4,0-8-3.6-8-8v-16c0-13.2-10.8-24-24-24h-64v-24h96V68H128v48h96v24h-54.1c-9.2,0-17.4,5.1-21.5,13.3l-7.2,14.3
		c-1.4,2.7-4.1,4.4-7.1,4.4H96c-13.2,0-24,10.8-24,24v56H48v-64H0v176h48v-64h24v64c0,13.2,10.8,24,24,24h41.4
		c2.1,0,4.2,0.9,5.7,2.3l30.6,30.6c4.5,4.5,10.6,7,17,7H384c13.2,0,24-10.8,24-24v-64h31.4c-0.8,18.7-2.5,37.2-5.1,55.1l-3.6,24.9
		h56.2l3.2-22.6c3.9-27.1,5.8-54.7,5.8-82C496,283.5,493.3,251.4,488.1,220z M216,308v-16h176v16H216z M232,380v32h-16v-88h16v40h16
		v-40h16v88h-16v-32H232z M280,324h16v88h-16V324z M312,324h16v88h-16V324z M344,164v16c0,13.2,10.8,24,24,24h16c4.4,0,8,3.6,8,8v64
		H216v-72h112v-16H216v-32h120C340.4,156,344,159.6,344,164z M144,100V84h208v16h-96v40h-16v-40H144z M32,284v64H16V204h16v64h40v16
		H32z M185,409.7L154.3,379c-4.5-4.5-10.6-7-17-7H96c-4.4,0-8-3.6-8-8V196c0-4.4,3.6-8,8-8h38.1c9.2,0,17.4-5.1,21.5-13.3l7.2-14.3
		c1.4-2.7,4.1-4.4,7.1-4.4H200v256h-9.4C188.5,412,186.5,411.1,185,409.7z M384,412h-8v-56h-16v56h-16v-88h16v16h16v-16h16v80
		C392,408.4,388.4,412,384,412z M474.3,395.1l-1.3,8.9h-23.8l0.9-6.6c3-21.2,4.9-43.1,5.5-65.1l0.2-8.2H408v-16h47.9l-0.2-8.2
		c-0.6-24.4-2.8-48.5-6.3-71.8h23.8c4.5,28.8,6.8,58.2,6.8,87.3C480,341.9,478.1,368.8,474.3,395.1z"/>
	<rect x="120" y="268" class="st1" width="16" height="16"/>
	<rect x="232" y="244" class="st1" width="16" height="16"/>
	<rect x="360" y="244" class="st1" width="16" height="16"/>
</g>
</svg>
