<?xml version="1.0" encoding="utf-8"?>
<!-- Generator: Adobe Illustrator 22.1.0, SVG Export Plug-In . SVG Version: 6.00 Build 0)  -->
<svg version="1.1" id="Capa_1" xmlns="http://www.w3.org/2000/svg" xmlns:xlink="http://www.w3.org/1999/xlink" x="0px" y="0px"
	 viewBox="0 0 496 496" style="enable-background:new 0 0 496 496;" xml:space="preserve">
<style type="text/css">
	.st0{fill:#F46969;}
	.st1{fill:#4C4949;}
</style>
<g>
	<rect x="296" y="32" class="st0" width="192" height="32"/>
	<path class="st0" d="M148.2,39.2c-0.4-4.1-3.8-7.2-8-7.2H8v16v136v16h147.1c2.3,0,4.4-1,5.9-2.6c1.5-1.7,2.3-3.9,2-6.2L148.2,39.2z
		"/>
	<path class="st0" d="M200,368h-64c-4.4,0-8-3.6-8-8v-32c0-4.4,3.6-8,8-8h64c4.4,0,8,3.6,8,8v32C208,364.4,204.4,368,200,368z"/>
</g>
<g>
	<g>
		<path class="st1" d="M232,120h-43.5l-9.4-84.4C176.9,15.3,159.8,0,139.4,0H0v464h72v-64h48v72c0,13.2,10.8,24,24,24h48
			c13.2,0,24-10.8,24-24v-72h16c13.2,0,24-10.8,24-24v-64c0-10.4-6.7-19.2-16-22.5V256c0-22.1-17.9-40-40-40h-0.8l-1.8-16H232
			c13.2,0,24-10.8,24-24v-32C256,130.8,245.2,120,232,120z M16,368v-64h24v64H16z M56,448H16v-64h40V448z M56,368v-64h32v80H72v-16
			H56z M200,416h-16v16h16v16h-16v16h16v8c0,4.4-3.6,8-8,8h-48c-4.4,0-8-3.6-8-8v-8h16v-16h-16v-16h16v-16h-16v-16h64V416z M240,376
			c0,4.4-3.6,8-8,8H104v-80h128c4.4,0,8,3.6,8,8V376z M200,232c13.2,0,24,10.8,24,24v32H16v-56h32v-16H16V16h123.4
			c12.2,0,22.5,9.2,23.8,21.3L183.1,216H64v16H200z M240,176c0,4.4-3.6,8-8,8h-36.4l-5.3-48H232c4.4,0,8,3.6,8,8V176z"/>
		<path class="st1" d="M496,136V0H288v136c0,49.1,34.2,90.2,80,101.1V280h-61.6l8.9,16H288v24h-16v16h16v16h58.4l8.9,16h4.7v19.2
			c0,17.3-5.1,34-14.7,48.4l-8.3,12.4H352c26.5,0,48-21.5,48-48v-32h16v104c0,13.2,10.8,24,24,24h32c13.2,0,24-10.8,24-24V368v-8
			v-56c0-13.2-10.8-24-24-24h-56v-42.9C461.8,226.2,496,185.1,496,136z M304,136V48h144V32H304V16h176v16h-16v16h16v88
			c0,48.5-39.5,88-88,88S304,184.5,304,136z M304,336v-24h20.2l13.3,24H304z M384,400c0,12-6.6,22.4-16.4,27.9
			c5.5-12.8,8.4-26.6,8.4-40.8V368h8V400z M480,384h-16v16h16v16h-16v16h16v16h-16v16h16v8c0,4.4-3.6,8-8,8h-32c-4.4,0-8-3.6-8-8
			V368h48V384z M480,304v48H364.7l-31.1-56H472C476.4,296,480,299.6,480,304z M400,280h-16v-40.4c2.6,0.2,5.3,0.4,8,0.4
			s5.4-0.2,8-0.4V280z"/>
	</g>
	<path class="st1" d="M464,136h-16c0,30.9-25.1,56-56,56v16C431.7,208,464,175.7,464,136z"/>
	<rect x="448" y="104" class="st1" width="16" height="16"/>
</g>
</svg>
