<?xml version="1.0" encoding="utf-8"?>
<!-- Generator: Adobe Illustrator 22.1.0, SVG Export Plug-In . SVG Version: 6.00 Build 0)  -->
<svg version="1.1" id="Capa_1" xmlns="http://www.w3.org/2000/svg" xmlns:xlink="http://www.w3.org/1999/xlink" x="0px" y="0px"
	 viewBox="0 0 496 496" style="enable-background:new 0 0 496 496;" xml:space="preserve">
<style type="text/css">
	.st0{fill:#F46969;}
	.st1{fill:#4C4949;}
</style>
<path class="st0" d="M248,464c-119.1,0-216-96.9-216-216S128.9,32,248,32s216,96.9,216,216S367.1,464,248,464z M248,64
	C146.5,64,64,146.5,64,248s82.5,184,184,184s184-82.5,184-184S349.5,64,248,64z"/>
<g>
	<path class="st1" d="M248,0C111.3,0,0,111.3,0,248s111.3,248,248,248s248-111.3,248-248S384.7,0,248,0z M370.8,444.7l-7.9-13.6
		l-13.9,8l7.9,13.7c-30.3,16.2-64.6,25.8-101,27.1V464h-16v15.8c-36.4-1.2-70.7-10.9-101-27.1l7.9-13.7l-13.9-8l-7.9,13.6
		c-29.9-18.7-55.2-44-73.9-73.9l13.6-7.9l-8-13.9L43.3,357c-16.2-30.3-25.8-64.6-27.1-101H32v-16H16.2c1.2-36.4,10.9-70.7,27.1-101
		l13.7,7.9l8-13.9l-13.6-7.9C70,95.3,95.3,70,125.2,51.3l7.9,13.6l13.9-8L139,43.3c30.3-16.2,64.6-25.8,101-27.1V32h16V16.2
		c36.4,1.2,70.7,10.9,101,27.1l-7.9,13.7l13.9,8l7.9-13.6c29.9,18.7,55.2,44,73.9,73.9l-13.6,7.9l8,13.9l13.7-7.9
		c16.2,30.3,25.8,64.6,27.1,101H464v16h15.8c-1.2,36.4-10.9,70.7-27.1,101l-13.7-7.9l-8,13.9l13.6,7.9
		C426,400.7,400.7,426,370.8,444.7z"/>
	<path class="st1" d="M248,112c-75,0-136,61-136,136s61,136,136,136s136-61,136-136S323,112,248,112z M365.6,224h-82.3l54.9-54.9
		C351.7,184.5,361.4,203.2,365.6,224z M169.1,157.8c15.4-13.5,34.1-23.2,54.9-27.4v82.3L169.1,157.8z M224,283.3v82.3
		c-20.8-4.2-39.5-13.9-54.9-27.4L224,283.3z M224,248c0-13.2,10.8-24,24-24s24,10.8,24,24s-10.8,24-24,24S224,261.2,224,248z
		 M272,212.7v-82.3c20.8,4.2,39.5,13.9,54.9,27.4L272,212.7z M326.9,338.2c-15.4,13.5-34.1,23.2-54.9,27.4v-82.3L326.9,338.2z
		 M256,128.4v80.4c-2.6-0.5-5.3-0.8-8-0.8s-5.4,0.3-8,0.8v-80.4c2.7-0.2,5.3-0.4,8-0.4C250.7,128,253.3,128.2,256,128.4z
		 M157.8,169.1l54.9,54.9h-82.3C134.6,203.2,144.3,184.5,157.8,169.1z M130.4,272H144v-16h-15.6c-0.2-2.7-0.4-5.3-0.4-8
		s0.2-5.3,0.4-8h80.4c-0.5,2.6-0.8,5.3-0.8,8s0.3,5.4,0.8,8H160v16h52.7l-54.9,54.9C144.3,311.5,134.6,292.8,130.4,272z M240,367.6
		v-80.4c2.6,0.5,5.3,0.8,8,0.8s5.4-0.3,8-0.8v80.4c-2.7,0.2-5.3,0.4-8,0.4S242.7,367.8,240,367.6z M338.2,326.9L283.3,272h82.3
		C361.4,292.8,351.7,311.5,338.2,326.9z M367.6,256h-80.4c0.5-2.6,0.8-5.3,0.8-8s-0.3-5.4-0.8-8h80.4c0.2,2.7,0.4,5.3,0.4,8
		S367.8,253.3,367.6,256z"/>
	<path class="st1" d="M432,256v-16h-16.4c-1.2-24.7-7.6-48.1-18.4-68.9l14.2-8.2l-8-13.9l-14.2,8.2c-13-20.2-30.2-37.4-50.4-50.4
		l8.2-14.2l-13.9-8l-8.2,14.2C304.1,88,280.7,81.6,256,80.4V64h-16v16.4c-24.7,1.2-48.1,7.6-68.9,18.4l-8.2-14.2l-13.9,8l8.2,14.2
		c-20.2,13-37.4,30.2-50.4,50.4l-14.2-8.2l-8,13.9l14.2,8.2C88,191.9,81.6,215.3,80.4,240H64v16h16.4c1.2,24.7,7.6,48.1,18.4,68.9
		l-14.2,8.2l8,13.9l14.2-8.2c13,20.2,30.2,37.4,50.4,50.4l-8.2,14.2l13.9,8l8.2-14.2c20.8,10.8,44.2,17.2,68.9,18.4V432h16v-16.4
		c24.2-1.2,47.6-7.5,68.9-18.4l8.2,14.2l13.9-8l-8.2-14.2c6.4-4.1,12.6-8.5,18.4-13.5l-10.4-12.2C319.3,387,284.2,400,248,400
		c-83.8,0-152-68.2-152-152S164.2,96,248,96s152,68.2,152,152c0,36.2-13,71.3-36.5,98.8l12.2,10.4c5-5.8,9.4-12,13.5-18.4l14.2,8.2
		l8-13.9l-14.2-8.2c11-21.3,17.3-44.8,18.4-68.9L432,256L432,256z"/>
</g>
</svg>
