<?xml version="1.0" encoding="utf-8"?>
<!-- Generator: Adobe Illustrator 22.1.0, SVG Export Plug-In . SVG Version: 6.00 Build 0)  -->
<svg version="1.1" id="Capa_1" xmlns="http://www.w3.org/2000/svg" xmlns:xlink="http://www.w3.org/1999/xlink" x="0px" y="0px"
	 viewBox="0 0 496 496" style="enable-background:new 0 0 496 496;" xml:space="preserve">
<style type="text/css">
	.st0{fill:#F46969;}
	.st1{fill:#4C4949;}
</style>
<path class="st0" d="M424,128H232c-4.4,0-8-3.6-8-8V40c0-4.4,3.6-8,8-8h192c4.4,0,8,3.6,8,8v80C432,124.4,428.4,128,424,128z"/>
<g>
	<path class="st1" d="M192,0v112v8.3V360c0,17.6,14.4,32,32,32h40v24h15.2c-3.7,18.2-19.9,32-39.2,32h-64c-22.1,0-40-17.9-40-40V168
		h-16v240c0,30.9,25.1,56,56,56h64c28.2,0,51.5-20.9,55.4-48H312v-24h32v24h16v8c0,30.9-25.1,56-56,56H120c-30.9,0-56-25.1-56-56
		V168H48v256c0,39.7,32.3,72,72,72h184c39.7,0,72-32.3,72-72v-8h16v-80h-48v40h-32v-40h-48v40h-16V167.7c0-7.3-3.3-14.2-9-18.7
		l-28-22.4c-1.9-1.5-3-3.8-3-6.2V112V16h240v96v8.3c0,2.4-1.1,4.7-3,6.2L417,149c-5.7,4.6-9,11.4-9,18.7V376h-16v16h40
		c17.6,0,32-14.4,32-32V120.3V112V0H192z M360,352h16v48h-16V352z M280,352h16v48h-16V352z M232,336h-24v-16h16v-16h-16v-16h24V336z
		 M232,272h-24v-16h24V272z M232,240h-24v-16h24V240z M232,208h-24v-16h24V208z M224,376c-8.8,0-16-7.2-16-16v-8h24v24H224z
		 M229,161.4c1.9,1.5,3,3.8,3,6.2v8.3h-24v-31.4L229,161.4z M427,161.4l21-16.8V176h-24v-8.3C424,165.2,425.1,163,427,161.4z
		 M448,224v16h-24v-48h24v16h-16v16H448z M424,304v-16h24v16H424z M448,320v16h-24v-16H448z M424,272v-16h24v16H424z M432,376h-8
		v-24h24v8C448,368.8,440.8,376,432,376z"/>
	<rect x="48" class="st1" width="16" height="72"/>
	<rect x="120" class="st1" width="16" height="72"/>
	<rect x="272" y="72" class="st1" width="16" height="16"/>
	<rect x="368" y="72" class="st1" width="16" height="16"/>
	<rect x="320" y="72" class="st1" width="16" height="16"/>
	<path class="st1" d="M328,304c30.9,0,56-25.1,56-56s-25.1-56-56-56s-56,25.1-56,56S297.1,304,328,304z M368,248
		c0,13-6.3,24.5-16,31.8v-63.6C361.7,223.5,368,235,368,248z M336,208.8v78.4c-2.6,0.5-5.3,0.8-8,0.8s-5.4-0.3-8-0.8v-78.4
		c2.6-0.5,5.3-0.8,8-0.8S333.4,208.3,336,208.8z M304,216.2v63.6c-9.7-7.3-16-18.8-16-31.8S294.3,223.5,304,216.2z"/>
	<rect x="264" y="160" class="st1" width="16" height="16"/>
	<rect x="296" y="160" class="st1" width="16" height="16"/>
	<rect x="376" y="160" class="st1" width="16" height="16"/>
	<rect x="344" y="160" class="st1" width="16" height="16"/>
</g>
<g>
	<path class="st0" d="M51.2,175.5C39.8,173.3,32,162.7,32,151.1V64h48v88C80,166.8,66.5,178.5,51.2,175.5z"/>
	<path class="st0" d="M123.2,175.5c-11.4-2.2-19.2-12.9-19.2-24.5V64h48v88C152,166.8,138.5,178.5,123.2,175.5z"/>
</g>
</svg>
